<svg version="1.1" xmlns="http://www.w3.org/2000/svg" xmlns:xlink="http://www.w3.org/1999/xlink" viewBox="0 0 1560 804" style="transform: rotate(180deg)">
  <g>
    <path fill="none" stroke="#27B8FA" paint-order="fill stroke markers" d=" M 20 429.4478238250778 L 21 430.81297474245895 L 22 432.1770673352653 L 23 433.5400514992391 L 24 434.90187717083614 L 25 436.2624943290645 L 26 437.6218529973221 L 27 438.97990324523215 L 28 440.3365951904772 L 29 441.69187900063156 L 30 443.04570489499133 L 31 444.39802314640315 L 32 445.74878408309064 L 33 447.0979380904789 L 34 448.4454356130168 L 35 449.79122715599743 L 36 451.1352632873758 L 37 452.4774946395847 L 38 453.81787191134794 L 39 455.15634586949125 L 40 456.49286735075077 L 41 457.82738726357854 L 42 459.1598565899461 L 43 460.4902263871445 L 44 461.8184477895825 L 45 463.1444720105809 L 46 464.4682503441651 L 47 465.7897341668536 L 48 467.10887493944426 L 49 468.42562420879733 L 50 469.7399336096145 L 51 471.05175486621636 L 52 472.3610397943148 L 53 473.66774030278333 L 54 474.9718083954232 L 55 476.27319617272656 L 56 477.5718558336358 L 57 478.8677396772994 L 58 480.1608001048237 L 59 481.45098962102156 L 60 482.73826083615677 L 61 484.02256646768495 L 62 485.3038593419898 L 63 486.5820923961163 L 64 487.85721867949906 L 65 489.12919135568694 L 66 490.39796370406367 L 67 491.6634891215634 L 68 492.9257211243828 L 69 494.1846133496886 L 70 495.4401195573202 L 71 496.6921936314882 L 72 497.9407895824684 L 73 499.18586154829103 L 74 500.4273637964251 L 75 501.66525072545824 L 76 502.89947686677215 L 77 504.1299968862119 L 78 505.35676558575176 L 79 506.57973790515496 L 80 507.798868923629 L 81 509.01411386147555 L 82 510.2254280817353 L 83 511.4327670918274 L 84 512.6360865451838 L 85 513.8353422428784 L 86 515.0304901352496 L 87 516.2214863235195 L 88 517.4082870614054 L 89 518.5908487567273 L 90 519.7691279730084 L 91 520.9430814310713 L 92 522.1126660106271 L 93 523.2778387518593 L 94 524.4385568570023 L 95 525.5947776919127 L 96 526.7464587876354 L 97 527.8935578419643 L 98 529.036032720995 L 99 530.173841460673 L 100 531.3069422683352 L 101 532.4352935242446 L 102 533.5588537831189 L 103 534.677581775654 L 104 535.7914364100378 L 105 536.9003767734617 L 106 538.0043621336218 L 107 539.1033519402158 L 108 540.1973058264323 L 109 541.2861836104333 L 110 542.3699452968303 L 111 543.4485510781534 L 112 544.5219613363133 L 113 545.5901366440567 L 114 546.6530377664143 L 115 547.7106256621421 L 116 548.7628614851553 L 117 549.8097065859552 L 118 550.8511225130487 L 119 551.8870710143611 L 120 552.9175140386405 L 121 553.9424137368558 L 122 554.9617324635869 L 123 555.9754327784078 L 124 556.9834774472606 L 125 557.985829443825 L 126 558.9824519508766 L 127 559.9733083616401 L 128 560.9583622811339 L 129 561.9375775275064 L 130 562.9109181333657 L 131 563.8783483471001 L 132 564.8398326341917 L 133 565.7953356785212 L 134 566.7448223836656 L 135 567.6882578741868 L 136 568.6256074969131 L 137 569.5568368222115 L 138 570.481911645253 L 139 571.4007979872683 L 140 572.3134620967965 L 141 573.2198704509237 L 142 574.1199897565162 L 143 575.0137869514416 L 144 575.9012292057839 L 145 576.7822839230497 L 146 577.6569187413648 L 147 578.5251015346636 L 148 579.3868004138684 L 149 580.2419837280613 L 150 581.0906200656464 L 151 581.9326782555039 L 152 582.7681273681346 L 153 583.5969367167966 L 154 584.4190758586313 L 155 585.2345145957834 L 156 586.0432229765081 L 157 586.8451712962727 L 158 587.6403300988472 L 159 588.4286701773862 L 160 589.2101625755014 L 161 589.9847785883256 L 162 590.7524897635675 L 163 591.5132679025555 L 164 592.2670850612747 L 165 593.0139135513925 L 166 593.7537259412761 L 167 594.486495057 L 168 595.2121939833437 L 169 595.930796064781 L 170 596.6422749064585 L 171 597.3466043751654 L 172 598.0437586002934 L 173 598.7337119747867 L 174 599.4164391560829 L 175 600.0919150670436 L 176 600.7601148968758 L 177 601.4210141020427 L 178 602.074588407166 L 179 602.7208138059164 L 180 603.3596665618966 L 181 603.9911232095126 L 182 604.6151605548353 L 183 605.231755676453 L 184 605.840885926313 L 185 606.4425289305536 L 186 607.036662590326 L 187 607.6232650826055 L 188 608.2023148609937 L 189 608.77379065651 L 190 609.3376714783717 L 191 609.8939366147664 L 192 610.4425656336123 L 193 610.9835383833081 L 194 611.5168349934738 L 195 612.0424358756808 L 196 612.5603217241703 L 197 613.0704735165637 L 198 613.5728725145603 L 199 614.0675002646265 L 200 614.5543385986726 L 201 615.033369634721 L 202 615.5045757775624 L 203 615.9679397194025 L 204 616.4234444404976 L 205 616.8710732097796 L 206 617.3108095854709 L 207 617.7426374156879 L 208 618.1665408390344 L 209 618.5825042851845 L 210 618.9905124754541 L 211 619.3905504233624 L 212 619.7826034351821 L 213 620.1666571104794 L 214 620.5426973426427 L 215 620.910710319401 L 216 621.2706825233308 L 217 621.6226007323531 L 218 621.966452020219 L 219 622.3022237569838 L 220 622.629903609472 L 221 622.9494795417295 L 222 623.2609398154659 L 223 623.5642729904858 L 224 623.859467925109 L 225 624.1465137765794 L 226 624.4254000014637 L 227 624.6961163560384 L 228 624.9586528966663 L 229 625.2129999801614 L 230 625.4591482641433 L 231 625.6970887073804 L 232 625.9268125701221 L 233 626.1483114144193 L 234 626.3615771044348 L 235 626.5666018067421 L 236 626.7633779906132 L 237 626.9518984282947 L 238 627.1321561952739 L 239 627.3041446705328 L 240 627.4678575367911 L 241 627.6232887807392 L 242 627.7704326932578 L 243 627.9092838696283 L 244 628.0398372097313 L 245 628.162087918234 L 246 628.2760315047656 L 247 628.3816637840836 L 248 628.4789808762262 L 249 628.5679792066553 L 250 628.6486555063884 L 251 628.7210068121176 L 252 628.7850304663192 L 253 628.8407241173509 L 254 628.8880857195386 L 255 628.9271135332513 L 256 628.9578061249646 L 257 628.980162367314 L 258 628.9941814391365 L 259 628.9998628254996 L 260 628.9972063177212 L 261 628.9862120133772 L 262 628.9668803162975 L 263 628.9392119365514 L 264 628.9032078904216 L 265 628.8588695003668 L 266 628.8061983949729 L 267 628.7451965088935 L 268 628.6758660827788 L 269 628.598209663193 L 270 628.5122301025212 L 271 628.4179305588643 L 272 628.3153144959231 L 273 628.2043856828711 L 274 628.0851481942162 L 275 627.9576064096507 L 276 627.8217650138904 L 277 627.6776289965031 L 278 627.525203651725 L 279 627.3644945782659 L 280 627.1955076791039 L 281 627.0182491612688 L 282 626.8327255356138 L 283 626.6389436165761 L 284 626.436910521927 L 285 626.2266336725105 L 286 626.0081207919707 L 287 625.7813799064676 L 288 625.546419344383 L 289 625.3032477360141 L 290 625.0518740132568 L 291 624.7923074092773 L 292 624.5245574581736 L 293 624.2486339946241 L 294 623.964547153528 L 295 623.6723073696313 L 296 623.3719253771451 L 297 623.0634122093503 L 298 622.7467791981926 L 299 622.4220379738664 L 300 622.0892004643874 L 301 621.748278895155 L 302 621.3992857885022 L 303 621.0422339632369 L 304 620.6771365341701 L 305 620.3040069116347 L 306 619.9228588009927 L 307 619.5337062021317 L 308 619.1365634089512 L 309 618.7314450088369 L 310 618.3183658821251 L 311 617.8973412015565 L 312 617.4683864317185 L 313 617.0315173284773 L 314 616.5867499383992 L 315 616.134100598161 L 316 615.6735859339501 L 317 615.2052228608542 L 318 614.729028582239 L 319 614.2450205891174 L 320 613.7532166595063 L 321 613.2536348577739 L 322 612.7462935339762 L 323 612.2312113231827 L 324 611.7084071447923 L 325 611.1779002018383 L 326 610.6397099802826 L 327 610.0938562483009 L 328 609.5403590555553 L 329 608.9792387324593 L 330 608.4105158894297 L 331 607.8342114161308 L 332 607.250346480706 L 333 606.658942529001 L 334 606.0600212837758 L 335 605.4536047439069 L 336 604.8397151835792 L 337 604.2183751514679 L 338 603.5896074699101 L 339 602.9534352340668 L 340 602.3098818110744 L 341 601.6589708391865 L 342 601.0007262269055 L 343 600.3351721521047 L 344 599.6623330611397 L 345 598.9822336679514 L 346 598.2948989531569 L 347 597.6003541631335 L 348 596.8986248090898 L 349 596.18973666613 L 350 595.4737157723063 L 351 594.7505884276628 L 352 594.0203811932697 L 353 593.2831208902471 L 354 592.5388345987806 L 355 591.7875496571255 L 356 591.0292936606043 L 357 590.2640944605914 L 358 589.4919801634912 L 359 588.7129791297054 L 360 587.9271199725911 L 361 587.1344315574099 L 362 586.3349430002684 L 363 585.528683667047 L 364 584.7156831723232 L 365 583.8959713782829 L 366 583.0695783936231 L 367 582.2365345724472 L 368 581.3968705131487 L 369 580.5506170572883 L 370 579.6978052884608 L 371 578.8384665311532 L 372 577.9726323495943 L 373 577.1003345465948 L 374 576.2216051623805 L 375 575.3364764734134 L 376 574.4449809912085 L 377 573.5471514611374 L 378 572.6430208612272 L 379 571.7326224009483 L 380 570.8159895199949 L 381 569.8931558870565 L 382 568.9641553985816 L 383 568.0290221775323 L 384 567.0877905721313 L 385 566.1404951545996 L 386 565.1871707198877 L 387 564.2278522843965 L 388 563.2625750846912 L 389 562.2913745762085 L 390 561.3142864319518 L 391 560.3313465411834 L 392 559.3425910081044 L 393 558.3480561505297 L 394 557.3477784985535 L 395 556.3417947932073 L 396 555.3301419851113 L 397 554.312857233116 L 398 553.2899779029383 L 399 552.2615415657884 L 400 551.22758599699 L 401 550.188149174593 L 402 549.1432692779779 L 403 548.0929846864543 L 404 547.0373339778505 L 405 545.9763559270967 L 406 544.9100895048011 L 407 543.8385738758177 L 408 542.7618483978089 L 409 541.6799526197985 L 410 540.5929262807205 L 411 539.5008093079579 L 412 538.4036418158773 L 413 537.3014641043552 L 414 536.1943166572973 L 415 535.0822401411523 L 416 533.9652754034172 L 417 532.8434634711377 L 418 531.7168455494011 L 419 530.5854630198226 L 420 529.4493574390251 L 421 528.3085705371137 L 422 527.163144216142 L 423 526.0131205485734 L 424 524.8585417757353 L 425 523.6994503062687 L 426 522.5358887145688 L 427 521.3678997392229 L 428 520.1955262814395 L 429 519.0188114034723 L 430 517.83779832704 L 431 516.6525304317367 L 432 515.4630512534403 L 433 514.2694044827122 L 434 513.0716339631929 L 435 511.869783689992 L 436 510.66389780807157 L 437 509.4540206106251 L 438 508.2401965374503 L 439 507.02247017331695 L 440 505.8008862463293 L 441 504.57548962628294 L 442 503.34632532301714 L 443 502.11343848476093 L 444 500.87687439647556 L 445 499.6366784781904 L 446 498.39289628333506 L 447 497.14557349706627 L 448 495.8947559345893 L 449 494.64048953947577 L 450 493.3828203819757 L 451 492.1217946573252 L 452 490.8574586840503 L 453 489.5898589022647 L 454 488.31904187196506 L 455 487.0450542713198 L 456 485.76794289495547 L 457 484.48775465223696 L 458 483.2045365655454 L 459 481.9183357685507 L 460 480.6291995044799 L 461 479.33717512438244 L 462 478.04231008539045 L 463 476.74465194897596 L 464 475.4442483792038 L 465 474.1411471409808 L 466 472.83539609830154 L 467 471.52704321249 L 468 470.2161365404379 L 469 468.90272423283994 L 470 467.5868545324247 L 471 466.268575772183 L 472 464.94793637359214 L 473 463.62498484483814 L 474 462.299769779033 L 475 460.9723398524305 L 476 459.6427438226382 L 477 458.31103052682624 L 478 456.97724887993394 L 479 455.64144787287273 L 480 454.3036765707267 L 481 452.96398411095083 L 482 451.62241970156555 L 483 450.2790326193498 L 484 448.9338722080306 L 485 447.58698787647074 L 486 446.23842909685453 L 487 444.88824540286953 L 488 443.53648638788826 L 489 442.1832017031457 L 490 440.8284410559163 L 491 439.4722542076876 L 492 438.11469097233277 L 493 436.7558012142809 L 494 435.3956348466851 L 495 434.03424182958986 L 496 432.67167216809514 L 497 431.30797591052004 L 498 429.9432031465649 L 499 428.5774040054704 L 500 427.21062865417747 L 501 425.8429272954837 L 502 424.4743501661998 L 503 423.1049475353045 L 504 421.7347697020974 L 505 420.3638669943525 L 506 418.9922897664685 L 507 417.6200883976202 L 508 416.24731328990737 L 509 414.8740148665038 L 510 413.5002435698051 L 511 412.1260498595758 L 512 410.7514842110963 L 513 409.3765971133083 L 514 408.00143906696064 L 515 406.62606058275463 L 516 405.25051217948794 L 517 403.8748443822001 L 518 402.4991077203156 L 519 401.12335272578844 L 520 399.74762993124637 L 521 398.37198986813394 L 522 396.99648306485733 L 523 395.62116004492754 L 524 394.24607132510545 L 525 392.87126741354564 L 526 391.49679880794145 L 527 390.12271599367045 L 528 388.7490694419393 L 529 387.3759096079309 L 530 386.00328692895016 L 531 384.631251822572 L 532 383.25985468478945 L 533 381.8891458881621 L 534 380.5191757799666 L 535 379.1499946803466 L 536 377.78165288046495 L 537 376.4142006406565 L 538 375.04768818858133 L 539 373.682165717381 L 540 372.3176833838336 L 541 370.9542913065126 L 542 369.59203956394515 L 543 368.2309781927729 L 544 366.8711571859146 L 545 365.5126264907289 L 546 364.1554360071805 L 547 362.79963558600696 L 548 361.4452750268875 L 549 360.09240407661434 L 550 358.74107242726484 L 551 357.39132971437675 L 552 356.04322551512485 L 553 354.6968093464996 L 554 353.3521306634893 L 555 352.0092388572623 L 556 350.6681832533541 L 557 349.32901310985443 L 558 347.99177761559883 L 559 346.6565258883615 L 560 345.323306973051 L 561 343.9921698399093 L 562 342.6631633827126 L 563 341.3363364169757 L 564 340.01173767815885 L 565 338.6894158198775 L 566 337.36941941211575 L 567 336.05179693944143 L 568 334.7365967992263 L 569 333.42386729986754 L 570 332.11365665901354 L 571 330.80601300179325 L 572 329.5009843590478 L 573 328.198618665567 L 574 326.898963758328 L 575 325.60206737473885 L 576 324.3079771508844 L 577 323.016740619777 L 578 321.7284052096108 L 579 320.44301824201875 L 580 319.16062693033575 L 581 317.8812783778632 L 582 316.6050195761397 L 583 315.3318974032146 L 584 314.06195862192635 L 585 312.79524987818485 L 586 311.5318176992577 L 587 310.27170849206203 L 588 309.01496854145904 L 589 307.7616440085544 L 590 306.51178092900284 L 591 305.2654252113168 L 592 304.02262263518065 L 593 302.7834188497686 L 594 301.5478593720685 L 595 300.31598958520965 L 596 299.0878547367959 L 597 297.8634999372439 L 598 296.6429701581257 L 599 295.4263102305172 L 600 294.2135648433516 L 601 293.0047785417776 L 602 291.7999957255236 L 603 290.59926064726625 L 604 289.40261741100585 L 605 288.2101099704457 L 606 287.02178212737783 L 607 285.8376775300744 L 608 284.657839671684 L 609 283.48231188863446 L 610 282.3111373590409 L 611 281.1443591011198 L 612 279.98201997160913 L 613 278.8241626641936 L 614 277.6708297079372 L 615 276.5220634657205 L 616 275.3779061326849 L 617 274.23839973468307 L 618 273.1035861267343 L 619 271.9735069914883 L 620 270.8482038376935 L 621 269.7277179986727 L 622 268.61209063080446 L 623 267.5013627120116 L 624 266.3955750402565 L 625 265.29476823204163 L 626 264.1989827209188 L 627 263.1082587560028 L 628 262.02263640049387 L 629 260.94215553020604 L 630 259.8668558321019 L 631 258.7967768028358 L 632 257.73195774730203 L 633 256.672437777192 L 634 255.61825580955724 L 635 254.56945056537987 L 636 253.52606056815074 L 637 252.48812414245384 L 638 251.4556794125592 L 639 250.42876430102217 L 640 249.4074165272905 L 641 248.39167360631924 L 642 247.3815728471923 L 643 246.37715135175245 L 644 245.3784460132383 L 645 244.3854935149291 L 646 243.39833032879778 L 647 242.4169927141708 L 648 241.44151671639665 L 649 240.4719381655216 L 650 239.50829267497383 L 651 238.55061564025544 L 652 237.5989422376419 L 653 236.65330742289052 L 654 235.71374592995602 L 655 234.78029226971518 L 656 233.85298072869878 L 657 232.93184536783252 L 658 232.01692002118597 L 659 231.1082382947295 L 660 230.2058335651003 L 661 229.3097389783761 L 662 228.41998744885785 L 663 227.53661165786067 L 664 226.65964405251376 L 665 225.78911684456804 L 666 224.9250620092133 L 667 224.06751128390377 L 668 223.21649616719213 L 669 222.3720479175731 L 670 221.53419755233455 L 671 220.70297584641855 L 672 219.87841333129123 L 673 219.06054029382074 L 674 218.24938677516562 L 675 217.4449825696705 L 676 216.64735722377225 L 677 215.8565400349144 L 678 215.07256005047165 L 679 214.295446066682 L 680 213.52522662758977 L 681 212.76193002399685 L 682 212.0055842924235 L 683 211.25621721407896 L 684 210.51385631384045 L 685 209.77852885924253 L 686 209.05026185947543 L 687 208.3290820643928 L 688 207.61501596352983 L 689 206.9080897851294 L 690 206.2083294951791 L 691 205.51576079645764 L 692 204.83040912759037 L 693 204.15229966211547 L 694 203.48145730755866 L 695 202.81790670451863 L 696 202.1616722257621 L 697 201.5127779753282 L 698 200.87124778764377 L 699 200.2371052266472 L 700 199.61037358492317 L 701 198.9910758828472 L 702 198.37923486773997 L 703 197.77487301303196 L 704 197.17801251743776 L 705 196.58867530414076 L 706 196.00688301998795 L 707 195.4326570346947 L 708 194.8660184400602 L 709 194.30698804919214 L 710 193.75558639574265 L 711 193.211833733154 L 712 192.67575003391474 L 713 192.1473549888258 L 714 191.62666800627764 L 715 191.11370821153704 L 716 190.60849444604463 L 717 190.11104526672324 L 718 189.62137894529573 L 719 189.13951346761414 L 720 188.66546653299906 L 721 188.19925555358944 L 722 187.74089765370317 L 723 187.29040966920786 L 724 186.8478081469026 L 725 186.41310934391018 L 726 185.98632922707986 L 727 185.56748347240108 L 728 185.15658746442747 L 729 184.7536562957118 L 730 184.3587047662517 L 731 183.97174738294598 L 732 183.59279835906187 L 733 183.2218716137128 L 734 182.85898077134726 L 735 182.5041391612483 L 736 182.15735981704395 L 737 181.81865547622866 L 738 181.48803857969503 L 739 181.1655212712772 L 740 180.85111539730477 L 741 180.54483250616738 L 742 180.24668384789103 L 743 179.9566803737243 L 744 179.67483273573654 L 745 179.40115128642634 L 746 179.13564607834147 L 747 178.8783268637095 L 748 178.62920309407957 L 749 178.38828391997538 L 750 178.15557819055894 L 751 177.93109445330572 L 752 177.71484095369038 L 753 177.50682563488425 L 754 177.30705613746332 L 755 177.1155397991277 L 756 176.93228365443213 L 757 176.75729443452752 L 758 176.59057856691373 L 759 176.43214217520358 L 760 176.28199107889768 L 761 176.14013079317104 L 762 176.0065665286701 L 763 175.88130319132168 L 764 175.76434538215247 L 765 175.65569739712032 L 766 175.55536322695625 L 767 175.46334655701799 L 768 175.37965076715443 L 769 175.30427893158176 L 770 175.23723381877028 L 771 175.17851789134286 L 772 175.12813330598445 L 773 175.08608191336288 L 774 175.05236525806083 L 775 175.02698457851912 L 776 175.00994080699132 L 777 175.0012345695093 L 778 175.0008661858605 L 779 175.0088356695759 L 780 175.0251427279297 L 781 175.04978676195006 L 782 175.08276686644115 L 783 175.1240818300162 L 784 175.17373013514214 L 785 175.23170995819535 L 786 175.29801916952866 L 787 175.37265533354943 L 788 175.45561570880915 L 789 175.54689724810416 L 790 175.6464965985874 L 791 175.7544101018917 L 792 175.87063379426417 L 793 175.99516340671175 L 794 176.12799436515797 L 795 176.26912179061105 L 796 176.418540499343 L 797 176.57624500308015 L 798 176.74222950920466 L 799 176.91648792096728 L 800 177.09901383771128 L 801 177.2898005551077 L 802 177.48884106540132 L 803 177.6961280576684 L 804 177.91165391808494 L 805 178.13541073020644 L 806 178.3673902752587 L 807 178.60758403243977 L 808 178.8559831792327 L 809 179.11257859172994 L 810 179.37736084496797 L 811 179.65032021327406 L 812 179.9314466706231 L 813 180.2207298910061 L 814 180.51815924880916 L 815 180.8237238192042 L 816 181.1374123785498 L 817 181.45921340480385 L 818 181.78911507794646 L 819 182.12710528041413 L 820 182.47317159754513 L 821 182.82730131803524 L 822 183.18948143440463 L 823 183.55969864347588 L 824 183.93793934686224 L 825 184.32418965146758 L 826 184.71843536999623 L 827 185.1206620214744 L 828 185.53085483178202 L 829 185.94899873419524 L 830 186.3750783699401 L 831 186.80907808875645 L 832 187.25098194947296 L 833 187.7007737205926 L 834 188.15843688088864 L 835 188.62395462001183 L 836 189.09730983910768 L 837 189.5784851514445 L 838 190.06746288305212 L 839 190.5642250733708 L 840 191.06875347591142 L 841 191.5810295589252 L 842 192.1010345060848 L 843 192.628749217175 L 844 193.16415430879474 L 845 193.70723011506877 L 846 194.2579566883702 L 847 194.81631380005302 L 848 195.3822809411951 L 849 195.95583732335172 L 850 196.53696187931897 L 851 197.12563326390756 L 852 197.7218298547271 L 853 198.32552975297975 L 854 198.9367107842652 L 855 199.5553504993948 L 856 200.1814261752163 L 857 200.8149148154484 L 858 201.45579315152523 L 859 202.1040376434515 L 860 202.7596244806668 L 861 203.42252958292022 L 862 204.09272860115496 L 863 204.7701969184024 L 864 205.45490965068672 L 865 206.14684164793863 L 866 206.84596749491925 L 867 207.55226151215362 L 868 208.26569775687372 L 869 208.9862500239718 L 870 209.71389184696255 L 871 210.4485964989554 L 872 211.19033699363638 L 873 211.93908608625864 L 874 212.69481627464418 L 875 213.45749980019332 L 876 214.2271086489047 L 877 215.00361455240366 L 878 215.78698898898136 L 879 216.57720318464192 L 880 217.37422811415934 L 881 218.17803450214384 L 882 218.98859282411667 L 883 219.80587330759528 L 884 220.6298459331864 L 885 221.46048043568877 L 886 222.29774630520504 L 887 223.14161278826174 L 888 223.99204888893988 L 889 224.84902337001267 L 890 225.7125047540933 L 891 226.58246132479093 L 892 227.45886112787554 L 893 228.34167197245205 L 894 229.23086143214246 L 895 230.12639684627683 L 896 231.02824532109327 L 897 231.93637373094535 L 898 232.8507487195199 L 899 233.7713367010616 L 900 234.69810386160668 L 901 235.63101616022504 L 902 236.5700393302703 L 903 237.51513888063891 L 904 238.46628009703676 L 905 239.42342804325432 L 906 240.38654756244995 L 907 241.3556032784408 L 908 242.330559597003 L 909 243.31138070717836 L 910 244.2980305825903 L 911 245.2904729827663 L 912 246.2886714544701 L 913 247.2925893330399 L 914 248.30218974373537 L 915 249.31743560309224 L 916 250.3382896202836 L 917 251.3647142984909 L 918 252.39667193628017 L 919 253.43412462898743 L 920 254.47703427011083 L 921 255.52536255270974 L 922 256.57907097081284 L 923 257.6381208208318 L 924 258.702473202983 L 925 259.7720890227166 L 926 260.84692899215185 L 927 261.926953631521 L 928 263.012123270619 L 929 264.1023980502606 L 930 265.19773792374474 L 931 266.2981026583246 L 932 267.4034518366867 L 933 268.5137448584345 L 934 269.62894094158 L 935 270.7489991240419 L 936 271.8738782651492 L 937 273.00353704715394 L 938 274.13793397674755 L 939 275.27702738658536 L 940 276.4207754368173 L 941 277.56913611662395 L 942 278.72206724576074 L 943 279.8795264761064 L 944 281.04147129321893 L 945 282.20785901789657 L 946 283.3786468077463 L 947 284.5537916587568 L 948 285.73325040687837 L 949 286.91697972960844 L 950 288.1049361475821 L 951 289.2970760261703 L 952 290.49335557708173 L 953 291.69373085997154 L 954 292.8981577840554 L 955 294.10659210972824 L 956 295.3189894501904 L 957 296.5353052730771 L 958 297.7554949020945 L 959 298.9795135186609 L 960 300.207316163552 L 961 301.43885773855357 L 962 302.6740930081172 L 963 303.9129766010221 L 964 305.15546301204154 L 965 306.4015066036138 L 966 307.6510616075195 L 967 308.904082126562 L 968 310.16052213625335 L 969 311.4203354865051 L 970 312.6834759033226 L 971 313.9498969905058 L 972 315.2195522313528 L 973 316.49239499036844 L 974 317.7683785149776 L 975 319.0474559372417 L 976 320.3295802755812 L 977 321.6147044365006 L 978 322.90278121631866 L 979 324.1937633029014 L 980 325.48760327740115 L 981 326.7842536159974 L 982 328.0836666916424 L 983 329.38579477581135 L 984 330.69059004025405 L 985 331.9980045587532 L 986 333.3079903088841 L 987 334.6204991737782 L 988 335.9354829438915 L 989 337.2528933187736 L 990 338.57268190884383 L 991 339.8948002371674 L 992 341.21919974123614 L 993 342.54583177475286 L 994 343.87464760941685 L 995 345.2055984367154 L 996 346.53863536971534 L 997 347.8737094448592 L 998 349.2107716237637 L 999 350.54977279502043 L 1000 351.8906637760006 L 1001 353.233395314661 L 1002 354.5779180913531 L 1003 355.9241827206352 L 1004 357.2721397530849 L 1005 358.6217396771173 L 1006 359.97293292080246 L 1007 361.32566985368663 L 1008 362.6799007886146 L 1009 364.0355759835556 L 1010 365.39264564342994 L 1011 366.75105992193807 L 1012 368.1107689233917 L 1013 369.4717227045455 L 1014 370.83387127643323 L 1015 372.19716460620253 L 1016 373.5615526189533 L 1017 374.92698519957696 L 1018 376.29341219459644 L 1019 377.6607834140097 L 1020 379.0290486331322 L 1021 380.3981575944423 L 1022 381.7680600094269 L 1023 383.1387055604283 L 1024 384.51004390249335 L 1025 385.8820246652218 L 1026 387.2545974546169 L 1027 388.62771185493636 L 1028 390.00131743054357 L 1029 391.37536372776117 L 1030 392.74980027672353 L 1031 394.12457659323076 L 1032 395.49964218060325 L 1033 396.87494653153556 L 1034 398.25043912995295 L 1035 399.626069452866 L 1036 401.00178697222634 L 1037 402.3775411567834 L 1038 403.7532814739389 L 1039 405.1289573916047 L 1040 406.50451838005785 L 1041 407.87991391379705 L 1042 409.2550934733978 L 1043 410.63000654736885 L 1044 412.0046026340073 L 1045 413.3788312432532 L 1046 414.75264189854477 L 1047 416.1259841386712 L 1048 417.49880751962775 L 1049 418.87106161646756 L 1050 420.242696025154 L 1051 421.6136603644122 L 1052 422.9839042775793 L 1053 424.3533774344544 L 1054 425.72202953314724 L 1055 427.0898103019256 L 1056 428.45666950106204 L 1057 429.8225569246788 L 1058 431.18742240259263 L 1059 432.55121580215706 L 1060 433.9138870301039 L 1061 435.2753860343836 L 1062 436.6356628060026 L 1063 437.99466738086164 L 1064 439.3523498415901 L 1065 440.7086603193798 L 1066 442.0635489958167 L 1067 443.4169661047101 L 1068 444.7688619339219 L 1069 446.1191868271917 L 1070 447.46789118596075 L 1071 448.8149254711942 L 1072 450.16024020519967 L 1073 451.5037859734461 L 1074 452.84551342637764 L 1075 454.185373281227 L 1076 455.5233163238247 L 1077 456.8592934104079 L 1078 458.19325546942486 L 1079 459.52515350333744 L 1080 460.85493859042106 L 1081 462.18256188656085 L 1082 463.50797462704685 L 1083 464.8311281283646 L 1084 466.1519737899832 L 1085 467.470463096141 L 1086 468.78654761762647 L 1087 470.10017901355866 L 1088 471.4113090331615 L 1089 472.7198895175368 L 1090 474.0258724014329 L 1091 475.3292097150097 L 1092 476.6298535856017 L 1093 477.9277562394757 L 1094 479.22287000358534 L 1095 480.5151473073231 L 1096 481.80454068426616 L 1097 483.09100277392145 L 1098 484.3744863234643 L 1099 485.65494418947424 L 1100 486.9323293396669 L 1101 488.2065948546209 L 1102 489.477693929502 L 1103 490.74557987578186 L 1104 492.01020612295304 L 1105 493.27152622023976 L 1106 494.52949383830327 L 1107 495.7840627709448 L 1108 497.0351869368019 L 1109 498.2828203810414 L 1110 499.52691727704683 L 1111 500.7674319281025 L 1112 502.0043187690716 L 1113 503.2375323680694 L 1114 504.46702742813306 L 1115 505.69275878888385 L 1116 506.9146814281877 L 1117 508.1327504638076 L 1118 509.3469211550529 L 1119 510.5571489044222 L 1120 511.7633892592415 L 1121 512.9655979132974 L 1122 514.1637307084641 L 1123 515.3577436363255 L 1124 516.547592839792 L 1125 517.7332346147102 L 1126 518.9146254114698 L 1127 520.0917218366026 L 1128 521.2644806543755 L 1129 522.4328587883801 L 1130 523.5968133231136 L 1131 524.7563015055557 L 1132 525.9112807467396 L 1133 527.061708623315 L 1134 528.2075428791075 L 1135 529.3487414266694 L 1136 530.4852623488274 L 1137 531.6170639002207 L 1138 532.7441045088352 L 1139 533.8663427775302 L 1140 534.9837374855584 L 1141 536.0962475900814 L 1142 537.2038322276755 L 1143 538.3064507158343 L 1144 539.4040625544616 L 1145 540.4966274273597 L 1146 541.5841052037106 L 1147 542.666455939549 L 1148 543.7436398792306 L 1149 544.8156174568915 L 1150 545.8823492979016 L 1151 546.9437962203117 L 1152 547.9999192362917 L 1153 549.0506795535632 L 1154 550.0960385768236 L 1155 551.1359579091651 L 1156 552.170399353484 L 1157 553.1993249138837 L 1158 554.2226967970713 L 1159 555.2404774137442 L 1160 556.2526293799724 L 1161 557.2591155185705 L 1162 558.2598988604641 L 1163 559.2549426460469 L 1164 560.2442103265312 L 1165 561.2276655652906 L 1166 562.205272239195 L 1167 563.1769944399362 L 1168 564.1427964753481 L 1169 565.1026428707169 L 1170 566.0564983700847 L 1171 567.004327937544 L 1172 567.9460967585251 L 1173 568.8817702410738 L 1174 569.8113140171239 L 1175 570.7346939437574 L 1176 571.6518761044604 L 1177 572.5628268103676 L 1178 573.4675126015003 L 1179 574.3659002479955 L 1180 575.2579567513263 L 1181 576.1436493455138 L 1182 577.0229454983312 L 1183 577.8958129124976 L 1184 578.7622195268656 L 1185 579.6221335175981 L 1186 580.4755232993377 L 1187 581.3223575263667 L 1188 582.1626050937577 L 1189 582.9962351385177 L 1190 583.8232170407202 L 1191 584.6435204246309 L 1192 585.4571151598229 L 1193 586.2639713622833 L 1194 587.0640593955114 L 1195 587.8573498716071 L 1196 588.64381365235 L 1197 589.4234218502702 L 1198 590.1961458297086 L 1199 590.9619572078695 L 1200 591.7208278558628 L 1201 592.4727298997371 L 1202 593.217635721504 L 1203 593.9555179601515 L 1204 594.6863495126502 L 1205 595.410103534948 L 1206 596.1267534429568 L 1207 596.8362729135278 L 1208 597.5386358854197 L 1209 598.2338165602553 L 1210 598.9217894034689 L 1211 599.602529145245 L 1212 600.2760107814449 L 1213 600.9422095745274 L 1214 601.6011010544554 L 1215 602.2526610195957 L 1216 602.8968655376079 L 1217 603.5336909463231 L 1218 604.1631138546132 L 1219 604.7851111432504 L 1220 605.399659965756 L 1221 606.0067377492393 L 1222 606.6063221952276 L 1223 607.1983912804843 L 1224 607.7829232578188 L 1225 608.3598966568841 L 1226 608.9292902849667 L 1227 609.4910832277637 L 1228 610.0452548501526 L 1229 610.5917847969476 L 1230 611.1306529936483 L 1231 611.6618396471769 L 1232 612.1853252466046 L 1233 612.7010905638693 L 1234 613.2091166544811 L 1235 613.7093848582183 L 1236 614.2018767998127 L 1237 614.686574389625 L 1238 615.1634598243086 L 1239 615.6325155874642 L 1240 616.0937244502828 L 1241 616.5470694721784 L 1242 616.9925340014104 L 1243 617.4301016756956 L 1244 617.8597564228085 L 1245 618.2814824611723 L 1246 618.695264300438 L 1247 619.101086742054 L 1248 619.4989348798237 L 1249 619.8887941004533 L 1250 620.270650084089 L 1251 620.6444888048421 L 1252 621.0102965313049 L 1253 621.3680598270546 L 1254 621.7177655511474 L 1255 622.0594008586006 L 1256 622.3929532008644 L 1257 622.7184103262836 L 1258 623.0357602805465 L 1259 623.344991407125 L 1260 623.6460923477019 L 1261 623.939052042589 L 1262 624.2238597311323 L 1263 624.500504952108 L 1264 624.7689775441069 L 1265 625.0292676459067 L 1266 625.2813656968351 L 1267 625.5252624371207 L 1268 625.7609489082326 L 1269 625.9884164532109 L 1270 626.2076567169826 L 1271 626.4186616466702 L 1272 626.621423491887 L 1273 626.8159348050211 L 1274 627.0021884415103 L 1275 627.1801775601028 L 1276 627.3498956231103 L 1277 627.5113363966469 L 1278 627.6644939508583 L 1279 627.80936266014 L 1280 627.9459372033434 L 1281 628.0742125639719 L 1282 628.1941840303646 L 1283 628.3058471958693 L 1284 628.4091979590053 L 1285 628.5042325236125 L 1286 628.5909473989924 L 1287 628.6693394000354 L 1288 628.7394056473377 L 1289 628.8011435673079 L 1290 628.8545508922607 L 1291 628.8996256605004 L 1292 628.9363662163934 L 1293 628.9647712104284 L 1294 628.9848395992661 L 1295 628.9965706457781 L 1296 628.9999639190733 L 1297 628.9950192945137 L 1298 628.9817369537197 L 1299 628.9601173845626 L 1300 628.9301613811474 L 1301 628.8918700437828 L 1302 628.8452447789417 L 1303 628.790287299209 L 1304 628.7269996232185 L 1305 628.6553840755796 L 1306 628.5754432867907 L 1307 628.4871801931438 L 1308 628.3905980366159 L 1309 628.28570036475 L 1310 628.1724910305251 L 1311 628.0509741922142 L 1312 627.9211543132324 L 1313 627.7830361619717 L 1314 627.6366248116271 L 1315 627.4819256400094 L 1316 627.3189443293483 L 1317 627.147686866083 L 1318 626.9681595406427 L 1319 626.780368947216 L 1320 626.5843219835076 L 1321 626.3800258504862 L 1322 626.1674880521188 L 1323 625.9467163950958 L 1324 625.7177189885443 L 1325 625.4805042437299 L 1326 625.2350808737477 L 1327 624.9814578932028 L 1328 624.7196446178785 L 1329 624.4496506643948 L 1330 624.1714859498544 L 1331 623.8851606914792 L 1332 623.5906854062345 L 1333 623.2880709104429 L 1334 622.9773283193872 L 1335 622.6584690469016 L 1336 622.3315048049529 L 1337 621.9964476032103 L 1338 621.653309748604 L 1339 621.3021038448734 L 1340 620.942842792104 L 1341 620.5755397862537 L 1342 620.2002083186679 L 1343 619.8168621755843 L 1344 619.4255154376262 L 1345 619.0261824792855 L 1346 618.6188779683944 L 1347 618.2036168655873 L 1348 617.7804144237502 L 1349 617.3492861874619 L 1350 616.9102479924214 L 1351 616.4633159648679 L 1352 616.0085065209869 L 1353 615.5458363663085 L 1354 615.0753224950929 L 1355 614.596982189707 L 1356 614.1108330199886 L 1357 613.6168928426019 L 1358 613.1151798003815 L 1359 612.6057123216652 L 1360 612.0885091196184 L 1361 611.5635891915455 L 1362 611.030971818193 L 1363 610.490676563041 L 1364 609.9427232715842 L 1365 609.3871320706041 L 1366 608.8239233674283 L 1367 608.2531178491818 L 1368 607.674736482027 L 1369 607.0888005103936 L 1370 606.4953314561983 L 1371 605.8943511180537 L 1372 605.2858815704687 L 1373 604.6699451630369 L 1374 604.0465645196156 L 1375 603.4157625374957 L 1376 602.7775623865595 L 1377 602.1319875084305 L 1378 601.479061615612 L 1379 600.818808690616 L 1380 600.151252985083 L 1381 599.4764190188902 L 1382 598.7943315792515 L 1383 598.1050157198073 L 1384 597.4084967597031 L 1385 596.7048002826613 L 1386 595.9939521360396 L 1387 595.2759784298831 L 1388 594.5509055359643 L 1389 593.8187600868148 L 1390 593.0795689747471 L 1391 592.3333593508668 L 1392 591.5801586240752 L 1393 590.8199944600627 L 1394 590.0528947802928 L 1395 589.278887760976 L 1396 588.4980018320349 L 1397 587.7102656760607 L 1398 586.9157082272587 L 1399 586.1143586703864 L 1400 585.3062464396808 L 1401 584.4914012177774 L 1402 583.6698529346204 L 1403 582.8416317663628 L 1404 582.0067681342587 L 1405 581.1652927035449 L 1406 580.3172363823152 L 1407 579.462630320385 L 1408 578.6015059081473 L 1409 577.7338947754193 L 1410 576.8598287902811 L 1411 575.9793400579047 L 1412 575.0924609193748 L 1413 574.1992239505014 L 1414 573.2996619606232 L 1415 572.3938079914013 L 1416 571.4816953156072 L 1417 570.5633574358994 L 1418 569.6388280835938 L 1419 568.7081412174238 L 1420 567.7713310222936 L 1421 566.8284319080226 L 1422 565.8794785080806 L 1423 564.9245056783175 L 1424 563.9635484956809 L 1425 562.9966422569289 L 1426 562.0238224773336 L 1427 561.0451248893761 L 1428 560.0605854414346 L 1429 559.0702402964633 L 1430 558.074125830665 L 1431 557.0722786321539 L 1432 556.0647354996127 L 1433 555.0515334409403 L 1434 554.0327096718927 L 1435 553.0083016147162 L 1436 551.9783468967722 L 1437 550.9428833491561 L 1438 549.9019490053067 L 1439 548.85558209961 L 1440 547.8038210659947 L 1441 546.7467045365199 L 1442 545.6842713399565 L 1443 544.6165605003616 L 1444 543.5436112356442 L 1445 542.4654629561248 L 1446 541.3821552630882 L 1447 540.293727947329 L 1448 539.2002209876894 L 1449 538.1016745495913 L 1450 536.998128983561 L 1451 535.8896248237468 L 1452 534.7762027864298 L 1453 533.6579037685304 L 1454 532.534768846103 L 1455 531.4068392728292 L 1456 530.2741564785024 L 1457 529.1367620675054 L 1458 527.9946978172829 L 1459 526.8480056768067 L 1460 525.6967277650347 L 1461 524.5409063693637 L 1462 523.3805839440774 L 1463 522.2158031087854 L 1464 521.0466066468583 L 1465 519.8730375038566 L 1466 518.695138785953 L 1467 517.5129537583489 L 1468 516.3265258436858 L 1469 515.1358986204497 L 1470 513.9411158213707 L 1471 512.7422213318164 L 1472 511.53925918818123 L 1473 510.332273576267 L 1474 509.12130882966113 L 1475 507.9064094281079 L 1476 506.68761999587485 L 1477 505.46498530011354 L 1478 504.23855024921534 L 1479 503.0083598911616 L 1480 501.7744594118696 L 1481 500.53689413353186 L 1482 499.29570951295307 L 1483 498.0509511398784 L 1484 496.8026647353203 L 1485 495.5508961498788 L 1486 494.295691362057 L 1487 493.03709647657314 L 1488 491.77515772266605 L 1489 490.509921452398 L 1490 489.2414341389511 L 1491 487.96974237492236 L 1492 486.6948928706098 L 1493 485.416932452298 L 1494 484.13590806053827 L 1495 482.8518667484241 L 1496 481.56485567986294 L 1497 480.274922127844 L 1498 478.98211347270154 L 1499 477.68647720037507 L 1500 476.3880609006641 L 1501 475.0869122654822 L 1502 473.7830790871028 L 1503 472.47660925640514 L 1504 471.16755076111485 L 1505 469.8559516840414 L 1506 468.541860201312 L 1507 467.225324580602 L 1508 465.9063931793619 L 1509 464.5851144430412 L 1510 463.26153690330875 L 1511 461.93570917627136 L 1512 460.607679960686 L 1513 459.2774980361725 L 1514 457.9452122614216 L 1515 456.6108715724 L 1516 455.2745249805533 L 1517 453.93622157100555 L 1518 452.5960105007562 L 1519 451.2539409968745 L 1520 449.91006235469257 L 1521 448.5644239359925 L 1522 447.2170751671948 L 1523 445.86806553754275 L 1524 444.51744459728417 L 1525 443.16526195585186 L 1526 441.8115672800411 L 1527 440.4564102921855 L 1528 439.09984076833064 L 1529 437.7419085364053 L 1530 436.38266347439276 L 1531 435.02215550849655 L 1532 433.6604346113081 L 1533 432.2975507999709 L 1534 430.93355413434307 L 1535 429.56849471515886 L 1536 428.20242268218846 L 1537 426.835388212396 L 1538 425.46744151809696 L 1539 424.09863284511295" stroke-linecap="round" stroke-linejoin="round" stroke-miterlimit="10" stroke-width="24" />
  </g>
</svg>