<svg version="1.1" xmlns="http://www.w3.org/2000/svg" xmlns:xlink="http://www.w3.org/1999/xlink" viewbox="0 0 1560 804">
  <g>
    <path fill="none" stroke="#27B8FA" paint-order="fill stroke markers" d=" M 20 420.5539354214019 L 21 421.4797500789142 L 22 422.40528942794197 L 23 423.3305403877816 L 24 424.2554898818054 L 25 425.1801248376462 L 26 426.1044321873825 L 27 427.0283988677225 L 28 427.95201182018945 L 29 428.8752579913056 L 30 429.7981243327771 L 31 430.72059780167814 L 32 431.6426653606355 L 33 432.56431397801265 L 34 433.485530628094 L 35 434.406302291269 L 36 435.32661595421615 L 37 436.2464586100868 L 38 437.1658172586891 L 39 438.08467890667185 L 40 439.00303056770775 L 41 439.92085926267737 L 42 440.8381520198523 L 43 441.7548958750786 L 44 442.67107787195994 L 45 443.5866850620409 L 46 444.5017045049897 L 47 445.41612326878123 L 48 446.3299284298799 L 49 447.2431070734222 L 50 448.1556462933992 L 51 449.06753319283894 L 52 449.9787548839888 L 53 450.88929848849756 L 54 451.7991511375975 L 55 452.7082999722861 L 56 453.616732143508 L 57 454.5244348123365 L 58 455.4313951501548 L 59 456.3376003388378 L 60 457.24303757093276 L 61 458.1476940498406 L 62 459.05155698999664 L 63 459.95461361705134 L 64 460.85685116805087 L 65 461.7582568916174 L 66 462.65881804812943 L 67 463.5585219099017 L 68 464.4573557613651 L 69 465.35530689924667 L 70 466.2523626327486 L 71 467.14851028372806 L 72 468.0437371868762 L 73 468.9380306898971 L 74 469.8313781536866 L 75 470.72376695251114 L 76 471.61518447418587 L 77 472.5056181202531 L 78 473.39505530616026 L 79 474.283483461438 L 80 475.17089002987734 L 81 476.0572624697079 L 82 476.9425882537742 L 83 477.82685486971366 L 84 478.7100498201326 L 85 479.5921606227836 L 86 480.4731748107412 L 87 481.35307993257885 L 88 482.2318635525442 L 89 483.10951325073535 L 90 483.986016623276 L 91 484.8613612824911 L 92 485.7355348570817 L 93 486.60852499229986 L 94 487.4803193501232 L 95 488.3509056094295 L 96 489.2202714661705 L 97 490.088404633546 L 98 490.95529284217764 L 99 491.82092384028186 L 100 492.6852853938435 L 101 493.54836528678857 L 102 494.4101513211568 L 103 495.270631317274 L 104 496.1297931139245 L 105 496.98762456852273 L 106 497.8441135572849 L 107 498.6992479754004 L 108 499.55301573720277 L 109 500.4054047763408 L 110 501.25640304594856 L 111 502.10599851881625 L 112 502.9541791875596 L 113 503.80093306479 L 114 504.64624818328383 L 115 505.49011259615145 L 116 506.332514377006 L 117 507.1734416201324 L 118 508.01288244065495 L 119 508.850824974706 L 120 509.68725737959295 L 121 510.5221678339662 L 122 511.3555445379858 L 123 512.1873757134884 L 124 513.017649604154 L 125 513.8463544756713 L 126 514.6734786159043 L 127 515.4990103350576 L 128 516.3229379658417 L 129 517.1452498636373 L 130 517.965934406661 L 131 518.7849799961283 L 132 519.6023750564186 L 133 520.4181080352381 L 134 521.2321674037834 L 135 522.044541656904 L 136 522.8552193132658 L 137 523.6641889155123 L 138 524.4714390304275 L 139 525.2769582490965 L 140 526.0807351870676 L 141 526.8827584845128 L 142 527.6830168063884 L 143 528.4814988425953 L 144 529.2781933081385 L 145 530.073088943287 L 146 530.8661745137327 L 147 531.6574388107495 L 148 532.4468706513512 L 149 533.2344588784499 L 150 534.0201923610136 L 151 534.8040599942237 L 152 535.5860506996314 L 153 536.3661534253148 L 154 537.1443571460351 L 155 537.920650863392 L 156 538.6950236059795 L 157 539.4674644295408 L 158 540.2379624171232 L 159 541.0065066792321 L 160 541.7730863539849 L 161 542.537690607265 L 162 543.3003086328738 L 163 544.0609296526852 L 164 544.8195429167961 L 165 545.5761377036795 L 166 546.3307033203356 L 167 547.0832291024429 L 168 547.833704414509 L 169 548.5821186500211 L 170 549.3284612315956 L 171 550.0727216111277 L 172 550.8148892699403 L 173 551.5549537189333 L 174 552.2929044987311 L 175 553.0287311798306 L 176 553.762423362749 L 177 554.4939706781703 L 178 555.2233627870921 L 179 555.9505893809717 L 180 556.6756401818717 L 181 557.3985049426053 L 182 558.1191734468812 L 183 558.837635509448 L 184 559.5538809762377 L 185 560.2678997245101 L 186 560.9796816629951 L 187 561.6892167320353 L 188 562.3964949037289 L 189 563.1015061820709 L 190 563.8042406030941 L 191 564.5046882350106 L 192 565.2028391783515 L 193 565.8986835661076 L 194 566.5922115638681 L 195 567.2834133699597 L 196 567.9722792155858 L 197 568.6587993649636 L 198 569.3429641154625 L 199 570.0247637977404 L 200 570.7041887758817 L 201 571.3812294475318 L 202 572.0558762440343 L 203 572.7281196305648 L 204 573.3979501062673 L 205 574.0653582043872 L 206 574.7303344924053 L 207 575.3928695721718 L 208 576.0529540800381 L 209 576.7105786869903 L 210 577.36573409878 L 211 578.018411056056 L 212 578.6686003344957 L 213 579.3162927449346 L 214 579.9614791334968 L 215 580.604150381724 L 216 581.2442974067047 L 217 581.8819111612024 L 218 582.5169826337833 L 219 583.1495028489439 L 220 583.7794628672378 L 221 584.4068537854021 L 222 585.0316667364829 L 223 585.6538928899611 L 224 586.2735234518768 L 225 586.890549664954 L 226 587.504962808724 L 227 588.1167541996485 L 228 588.7259151912428 L 229 589.3324371741982 L 230 589.9363115765024 L 231 590.5375298635622 L 232 591.1360835383232 L 233 591.7319641413902 L 234 592.3251632511467 L 235 592.9156724838737 L 236 593.5034834938685 L 237 594.0885879735629 L 238 594.6709776536396 L 239 595.2506443031502 L 240 595.827579729631 L 241 596.4017757792187 L 242 596.973224336766 L 243 597.5419173259555 L 244 598.1078467094152 L 245 598.6710044888308 L 246 599.2313827050594 L 247 599.7889734382419 L 248 600.3437688079147 L 249 600.8957609731214 L 250 601.4449421325232 L 251 601.9913045245098 L 252 602.5348404273084 L 253 603.0755421590933 L 254 603.6134020780943 L 255 604.1484125827046 L 256 604.6805661115884 L 257 605.2098551437878 L 258 605.7362721988288 L 259 606.2598098368277 L 260 606.7804606585951 L 261 607.2982173057414 L 262 607.8130724607811 L 263 608.3250188472348 L 264 608.8340492297334 L 265 609.3401564141197 L 266 609.8433332475504 L 267 610.3435726185969 L 268 610.8408674573459 L 269 611.3352107354995 L 270 611.826595466474 L 271 612.3150147054996 L 272 612.8004615497177 L 273 613.2829291382786 L 274 613.7624106524388 L 275 614.2388993156569 L 276 614.7123883936902 L 277 615.1828711946886 L 278 615.6503410692904 L 279 616.1147914107157 L 280 616.5762156548598 L 281 617.0346072803858 L 282 617.4899598088172 L 283 617.9422668046292 L 284 618.3915218753399 L 285 618.8377186716 L 286 619.2808508872835 L 287 619.7209122595757 L 288 620.1578965690628 L 289 620.5917976398192 L 290 621.0226093394948 L 291 621.4503255794019 L 292 621.874940314601 L 293 622.2964475439862 L 294 622.7148413103707 L 295 623.13011570057 L 296 623.542264845486 L 297 623.9512829201899 L 298 624.3571641440046 L 299 624.7599027805863 L 300 625.1594931380055 L 301 625.5559295688274 L 302 625.9492064701922 L 303 626.3393182838935 L 304 626.7262594964576 L 305 627.1100246392209 L 306 627.4906082884075 L 307 627.8680050652057 L 308 628.242209635844 L 309 628.6132167116666 L 310 628.9810210492082 L 311 629.3456174502677 L 312 629.7070007619823 L 313 630.0651658768996 L 314 630.4201077330507 L 315 630.7718213140207 L 316 631.1203016490205 L 317 631.4655438129562 L 318 631.8075429264997 L 319 632.1462941561566 L 320 632.4817927143356 L 321 632.8140338594151 L 322 633.1430128958109 L 323 633.4687251740427 L 324 633.7911660907989 L 325 634.1103310890027 L 326 634.4262156578758 L 327 634.7388153330025 L 328 635.0481256963928 L 329 635.3541423765447 L 330 635.6568610485058 L 331 635.9562774339349 L 332 636.2523873011622 L 333 636.545186465249 L 334 636.834670788047 L 335 637.1208361782568 L 336 637.4036785914857 L 337 637.6831940303048 L 338 637.9593785443053 L 339 638.232228230155 L 340 638.5017392316529 L 341 638.7679077397834 L 342 639.0307299927712 L 343 639.2902022761333 L 344 639.5463209227324 L 345 639.7990823128282 L 346 640.0484828741287 L 347 640.2945190818405 L 348 640.5371874587192 L 349 640.776484575118 L 350 641.0124070490363 L 351 641.2449515461674 L 352 641.4741147799459 L 353 641.699893511594 L 354 641.9222845501673 L 355 642.1412847525997 L 356 642.3568910237483 L 357 642.5691003164364 L 358 642.7779096314976 L 359 642.9833160178168 L 360 643.1853165723734 L 361 643.3839084402813 L 362 643.5790888148297 L 363 643.7708549375225 L 364 643.9592040981174 L 365 644.1441336346646 L 366 644.3256409335436 L 367 644.5037234295008 L 368 644.6783786056856 L 369 644.8496039936857 L 370 645.0173971735626 L 371 645.1817557738848 L 372 645.3426774717626 L 373 645.5001599928798 L 374 645.6542011115264 L 375 645.8047986506299 L 376 645.9519504817863 L 377 646.0956545252899 L 378 646.2359087501627 L 379 646.3727111741832 L 380 646.5060598639146 L 381 646.6359529347318 L 382 646.7623885508481 L 383 646.8853649253413 L 384 647.004880320179 L 385 647.1209330462428 L 386 647.2335214633525 L 387 647.3426439802893 L 388 647.448299054818 L 389 647.550485193709 L 390 647.6492009527597 L 391 647.7444449368138 L 392 647.8362157997828 L 393 647.9245122446634 L 394 648.0093330235566 L 395 648.090676937685 L 396 648.1685428374105 L 397 648.2429296222494 L 398 648.3138362408889 L 399 648.3812616912014 L 400 648.445205020259 L 401 648.5056653243468 L 402 648.5626417489755 L 403 648.6161334888939 L 404 648.6661397881002 L 405 648.7126599398521 L 406 648.7556932866776 L 407 648.7952392203838 L 408 648.8312971820657 L 409 648.8638666621139 L 410 648.8929472002219 L 411 648.9185383853928 L 412 648.9406398559447 L 413 648.9592512995164 L 414 648.974372453071 L 415 648.9860031029004 L 416 648.9941430846281 L 417 648.9987922832111 L 418 648.9999506329419 L 419 648.9976181174497 L 420 648.9917947696999 L 421 648.9824806719943 L 422 648.9696759559695 L 423 648.9533808025956 L 424 648.9335954421726 L 425 648.9103201543285 L 426 648.8835552680142 L 427 648.8533011614995 L 428 648.8195582623677 L 429 648.7823270475088 L 430 648.7416080431142 L 431 648.6974018246678 L 432 648.6497090169389 L 433 648.5985302939728 L 434 648.5438663790815 L 435 648.4857180448334 L 436 648.4240861130424 L 437 648.3589714547563 L 438 648.2903749902446 L 439 648.2182976889851 L 440 648.1427405696508 L 441 648.0637047000948 L 442 647.9811911973362 L 443 647.8952012275431 L 444 647.805736006017 L 445 647.7127967971752 L 446 647.6163849145331 L 447 647.5165017206859 L 448 647.4131486272886 L 449 647.3063270950367 L 450 647.1960386336456 L 451 647.0822848018286 L 452 646.9650672072754 L 453 646.8443875066296 L 454 646.7202474054644 L 455 646.5926486582596 L 456 646.4615930683759 L 457 646.3270824880299 L 458 646.1891188182676 L 459 646.0477040089381 L 460 645.9028400586654 L 461 645.7545290148204 L 462 645.602772973492 L 463 645.4475740794576 L 464 645.2889345261525 L 465 645.126856555639 L 466 644.9613424585751 L 467 644.7923945741812 L 468 644.6200152902084 L 469 644.4442070429029 L 470 644.2649723169739 L 471 644.0823136455563 L 472 643.8962336101761 L 473 643.7067348407138 L 474 643.513820015367 L 475 643.3174918606123 L 476 643.1177531511678 L 477 642.9146067099524 L 478 642.7080554080471 L 479 642.498102164654 L 480 642.284749947055 L 481 642.0680017705699 L 482 641.8478606985136 L 483 641.6243298421532 L 484 641.397412360664 L 485 641.1671114610842 L 486 640.9334303982706 L 487 640.6963724748516 L 488 640.4559410411812 L 489 640.2121394952912 L 490 639.9649712828439 L 491 639.7144398970825 L 492 639.4605488787819 L 493 639.2033018161995 L 494 638.9427023450236 L 495 638.6787541483221 L 496 638.4114609564909 L 497 638.1408265472007 L 498 637.8668547453442 L 499 637.5895494229812 L 500 637.3089144992848 L 501 637.0249539404851 L 502 636.7376717598139 L 503 636.4470720174477 L 504 636.15315882045 L 505 635.8559363227141 L 506 635.5554087249031 L 507 635.2515802743922 L 508 634.9444552652068 L 509 634.6340380379634 L 510 634.3203329798073 L 511 634.0033445243513 L 512 633.6830771516122 L 513 633.3595353879481 L 514 633.0327238059944 L 515 632.7026470245988 L 516 632.3693097087565 L 517 632.0327165695439 L 518 631.6928723640522 L 519 631.3497818953199 L 520 631.0034500122656 L 521 630.6538816096186 L 522 630.3010816278502 L 523 629.9450550531037 L 524 629.5858069171246 L 525 629.2233422971883 L 526 628.857666316029 L 527 628.4887841417677 L 528 628.1167009878384 L 529 627.7414221129146 L 530 627.3629528208355 L 531 626.9812984605303 L 532 626.5964644259434 L 533 626.2084561559573 L 534 625.8172791343161 L 535 625.4229388895486 L 536 625.0254409948893 L 537 624.6247910681998 L 538 624.2209947718898 L 539 623.8140578128366 L 540 623.4039859423049 L 541 622.9907849558654 L 542 622.5744606933124 L 543 622.1550190385819 L 544 621.7324659196681 L 545 621.30680730854 L 546 620.878049221056 L 547 620.4461977168805 L 548 620.0112588993968 L 549 619.5732389156212 L 550 619.132143956117 L 551 618.6879802549056 L 552 618.2407540893794 L 553 617.7904717802131 L 554 617.3371396912736 L 555 616.8807642295307 L 556 616.4213518449662 L 557 615.9589090304835 L 558 615.4934423218145 L 559 615.0249582974284 L 560 614.5534635784383 L 561 614.0789648285074 L 562 613.6014687537552 L 563 613.1209821026628 L 564 612.6375116659767 L 565 612.1510642766142 L 566 611.6616468095654 L 567 611.1692661817967 L 568 610.6739293521538 L 569 610.1756433212615 L 570 609.6744151314268 L 571 609.1702518665378 L 572 608.6631606519643 L 573 608.1531486544573 L 574 607.6402230820468 L 575 607.1243911839413 L 576 606.6056602504239 L 577 606.0840376127503 L 578 605.5595306430448 L 579 605.0321467541961 L 580 604.5018933997525 L 581 603.9687780738167 L 582 603.4328083109398 L 583 602.8939916860147 L 584 602.3523358141697 L 585 601.8078483506596 L 586 601.2605369907587 L 587 600.7104094696516 L 588 600.1574735623236 L 589 599.6017370834514 L 590 599.0432078872924 L 591 598.4818938675733 L 592 597.9178029573789 L 593 597.3509431290403 L 594 596.7813223940216 L 595 596.2089488028072 L 596 595.6338304447876 L 597 595.0559754481452 L 598 594.4753919797396 L 599 593.892088244992 L 600 593.3060724877694 L 601 592.717352990268 L 602 592.1259380728958 L 603 591.5318360941556 L 604 590.9350554505265 L 605 590.3356045763458 L 606 589.7334919436884 L 607 589.1287260622487 L 608 588.5213154792195 L 609 587.9112687791712 L 610 587.2985945839307 L 611 586.6833015524594 L 612 586.0653983807308 L 613 585.4448938016078 L 614 584.8217965847193 L 615 584.1961155363355 L 616 583.5678594992448 L 617 582.9370373526276 L 618 582.3036580119315 L 619 581.6677304287448 L 620 581.0292635906704 L 621 580.3882665211991 L 622 579.7447482795808 L 623 579.0987179606977 L 624 578.4501846949357 L 625 577.7991576480542 L 626 577.1456460210579 L 627 576.4896590500663 L 628 575.8312060061827 L 629 575.1702961953638 L 630 574.5069389582878 L 631 573.8411436702227 L 632 573.1729197408933 L 633 572.5022766143493 L 634 571.8292237688299 L 635 571.153770716632 L 636 570.4759270039742 L 637 569.7957022108628 L 638 569.1131059509559 L 639 568.4281478714274 L 640 567.7408376528316 L 641 567.051185008965 L 642 566.3591996867302 L 643 565.6648914659977 L 644 564.9682701594674 L 645 564.2693456125302 L 646 563.5681277031291 L 647 562.8646263416191 L 648 562.1588514706275 L 649 561.4508130649132 L 650 560.7405211312257 L 651 560.0279857081638 L 652 559.3132168660336 L 653 558.5962247067066 L 654 557.8770193634759 L 655 557.1556110009146 L 656 556.4320098147301 L 657 555.706226031622 L 658 554.9782699091362 L 659 554.2481517355208 L 660 553.5158818295797 L 661 552.7814705405281 L 662 552.0449282478447 L 663 551.3062653611265 L 664 550.5654923199406 L 665 549.8226195936772 L 666 549.0776576814014 L 667 548.3306171117049 L 668 547.5815084425572 L 669 546.8303422611563 L 670 546.0771291837793 L 671 545.3218798556321 L 672 544.564604950699 L 673 543.8053151715922 L 674 543.0440212493997 L 675 542.2807339435349 L 676 541.5154640415831 L 677 540.7482223591501 L 678 539.9790197397089 L 679 539.2078670544465 L 680 538.4347752021108 L 681 537.6597551088553 L 682 536.8828177280859 L 683 536.1039740403055 L 684 535.323235052959 L 685 534.5406118002777 L 686 533.7561153431233 L 687 532.9697567688315 L 688 532.1815471910559 L 689 531.3914977496095 L 690 530.5996196103092 L 691 529.8059239648164 L 692 529.01042203048 L 693 528.2131250501762 L 694 527.414044292152 L 695 526.6131910498635 L 696 525.8105766418184 L 697 525.0062124114145 L 698 524.2001097267799 L 699 523.3922799806128 L 700 522.5827345900194 L 701 521.771484996354 L 702 520.958542665056 L 703 520.1439190854884 L 704 519.3276257707755 L 705 518.50967425764 L 706 517.6900761062401 L 707 516.8688429000059 L 708 516.0459862454761 L 709 515.2215177721333 L 710 514.3954491322403 L 711 513.567792000675 L 712 512.7385580747659 L 713 511.90775907412603 L 714 511.0754067404878 L 715 510.241512837537 L 716 509.4060891507466 L 717 508.56914748721005 L 718 507.7306996754744 L 719 506.8907575653733 L 720 506.0493330278592 L 721 505.2064379548359 L 722 504.36208425899054 L 723 503.51628387362484 L 724 502.6690487524868 L 725 501.82039086960145 L 726 500.970322219102 L 727 500.1188548150599 L 728 499.2660006913156 L 729 498.4117719013078 L 730 497.5561805179037 L 731 496.69923863322805 L 732 495.840958358492 L 733 494.9813518238228 L 734 494.12043117809145 L 735 493.25820858874147 L 736 492.3946962416167 L 737 491.5299063407893 L 738 490.6638511083873 L 739 489.7965427844216 L 740 488.9279936266131 L 741 488.0582159102195 L 742 487.1872219278618 L 743 486.3150239893505 L 744 485.44163442151194 L 745 484.5670655680135 L 746 483.6913297891897 L 747 482.81443946186715 L 748 481.9364069791897 L 749 481.0572447504438 L 750 480.176965200882 L 751 479.29558077154854 L 752 478.4131039191028 L 753 477.52954711564325 L 754 476.6449228485318 L 755 475.7592436202165 L 756 474.8725219480556 L 757 473.98477036413976 L 758 473.096001415116 L 759 472.20622766200927 L 760 471.31546168004616 L 761 470.42371605847586 L 762 469.5310034003931 L 763 468.6373363225599 L 764 467.74272745522694 L 765 466.8471894419555 L 766 465.95073493943835 L 767 465.0533766173212 L 768 464.1551271580234 L 769 463.25599925655865 L 770 462.35600562035614 L 771 461.45515896908023 L 772 460.55347203445103 L 773 459.6509575600644 L 774 458.74762830121205 L 775 457.84349702470075 L 776 456.93857650867267 L 777 456.0328795424241 L 778 455.1264189262249 L 779 454.2192074711378 L 780 453.3112579988369 L 781 452.4025833414272 L 782 451.4931963412624 L 783 450.58310985076383 L 784 449.67233673223905 L 785 448.7608898576992 L 786 447.84878210867845 L 787 446.9360263760505 L 788 446.02263555984723 L 789 445.1086225690763 L 790 444.1940003215385 L 791 443.27878174364514 L 792 442.36297977023594 L 793 441.44660734439543 L 794 440.52967741727036 L 795 439.6122029478869 L 796 438.69419690296695 L 797 437.7756722567457 L 798 436.8566419907872 L 799 435.93711909380187 L 800 435.01711656146233 L 801 434.0966473962198 L 802 433.1757246071208 L 803 432.2543612096227 L 804 431.33257022540994 L 805 430.41036468221034 L 806 429.4877576136103 L 807 428.56476205887157 L 808 427.64139106274587 L 809 426.7176576752914 L 810 425.7935749516878 L 811 424.8691559520521 L 812 423.94441374125375 L 813 423.0193613887305 L 814 422.09401196830294 L 815 421.1683785579904 L 816 420.2424742398258 L 817 419.3163120996707 L 818 418.38990522703074 L 819 417.4632667148701 L 820 416.53640965942685 L 821 415.60934716002777 L 822 414.6820923189031 L 823 413.7546582410016 L 824 412.8270580338052 L 825 411.8993048071435 L 826 410.971411673009 L 827 410.04339174537137 L 828 409.1152581399922 L 829 408.18702397424 L 830 407.2587023669043 L 831 406.33030643801027 L 832 405.40184930863387 L 833 404.4733441007155 L 834 403.5448039368757 L 835 402.6162419402285 L 836 401.6876712341968 L 837 400.7591049423264 L 838 399.8305561881007 L 839 398.9020380947555 L 840 397.9735637850931 L 841 397.04514638129695 L 842 396.11679900474627 L 843 395.1885347758307 L 844 394.26036681376445 L 845 393.33230823640173 L 846 392.4043721600503 L 847 391.47657169928675 L 848 390.54891996677105 L 849 389.6214300730611 L 850 388.69411512642785 L 851 387.7669882326693 L 852 386.8400624949258 L 853 385.9133510134949 L 854 384.9868668856458 L 855 384.06062320543475 L 856 383.1346330635197 L 857 382.2089095469752 L 858 381.28346573910756 L 859 380.3583147192701 L 860 379.43346956267794 L 861 378.50894334022377 L 862 377.5847491182924 L 863 376.66089995857664 L 864 375.7374089178925 L 865 374.8142890479944 L 866 373.8915533953916 L 867 372.96921500116264 L 868 372.0472869007717 L 869 371.12578212388445 L 870 370.2047136941834 L 871 369.2840946291845 L 872 368.3639379400525 L 873 367.4442566314175 L 874 366.52506370119096 L 875 365.6063721403821 L 876 364.6881949329142 L 877 363.7705450554413 L 878 362.85343547716457 L 879 361.9368791596489 L 880 361.0208890566403 L 881 360.10547811388204 L 882 359.19065926893245 L 883 358.2764454509815 L 884 357.3628495806682 L 885 356.44988456989824 L 886 355.53756332166114 L 887 354.6258987298484 L 888 353.71490367907074 L 889 352.80459104447624 L 890 351.8949736915682 L 891 350.98606447602384 L 892 350.0778762435118 L 893 349.1704218295114 L 894 348.2637140591306 L 895 347.3577657469251 L 896 346.4525896967172 L 897 345.54819870141455 L 898 344.6446055428298 L 899 343.74182299149976 L 900 342.83986380650464 L 901 341.93874073528804 L 902 341.03846651347675 L 903 340.13905386470094 L 904 339.2405155004137 L 905 338.34286411971215 L 906 337.44611240915737 L 907 336.5502730425955 L 908 335.65535868097834 L 909 334.76138197218484 L 910 333.8683555508416 L 911 332.9762920381451 L 912 332.08520404168286 L 913 331.1951041552552 L 914 330.3060049586978 L 915 329.4179190177033 L 916 328.5308588836438 L 917 327.64483709339385 L 918 326.7598661691528 L 919 325.87595861826844 L 920 324.9931269330595 L 921 324.1113835906394 L 922 323.23074105274014 L 923 322.3512117655359 L 924 321.47280815946704 L 925 320.5955426490651 L 926 319.7194276327765 L 927 318.8444754927875 L 928 317.97069859484964 L 929 317.0981092881045 L 930 316.2267199049097 L 931 315.3565427606639 L 932 314.4875901536332 L 933 313.6198743647774 L 934 312.75340765757585 L 935 311.8882022778553 L 936 311.0242704536155 L 937 310.161624394857 L 938 309.3002762934087 L 939 308.44023832275525 L 940 307.58152263786553 L 941 306.72414137502 L 942 305.86810665163983 L 943 305.0134305661155 L 944 304.1601251976358 L 945 303.30820260601695 L 946 302.45767483153253 L 947 301.6085538947429 L 948 300.76085179632554 L 949 299.9145805169054 L 950 299.06975201688556 L 951 298.2263782362783 L 952 297.3844710945363 L 953 296.54404249038396 L 954 295.70510430164944 L 955 294.86766838509686 L 956 294.0317465762588 L 957 293.1973506892685 L 958 292.3644925166935 L 959 291.5331838293686 L 960 290.7034363762298 L 961 289.8752618841478 L 962 289.04867205776293 L 963 288.2236785793191 L 964 287.4002931084989 L 965 286.57852728225896 L 966 285.75839271466526 L 967 284.9399009967294 L 968 284.1230636962441 L 969 283.30789235762035 L 970 282.4943985017238 L 971 281.6825936257124 L 972 280.87248920287345 L 973 280.0640966824617 L 974 279.25742748953746 L 975 278.4524930248052 L 976 277.6493046644523 L 977 276.84787375998826 L 978 276.0482116380847 L 979 275.2503296004146 L 980 274.454238923493 L 981 273.6599508585175 L 982 272.8674766312091 L 983 272.07682744165436 L 984 271.2880144641458 L 985 270.5010488470249 L 986 269.71594171252417 L 987 268.93270415661027 L 988 268.15134724882694 L 989 267.3718820321385 L 990 266.59431952277396 L 991 265.81867071007116 L 992 265.04494655632175 L 993 264.27315799661574 L 994 263.5033159386877 L 995 262.7354312627619 L 996 261.9695148213987 L 997 261.2055774393416 L 998 260.4436299133635 L 999 259.6836830121152 L 1000 258.9257474759719 L 1001 258.1698340168824 L 1002 257.41595331821725 L 1003 256.66411603461785 L 1004 255.91433279184608 L 1005 255.16661418663378 L 1006 254.4209707865331 L 1007 253.67741312976727 L 1008 252.9359517250816 L 1009 252.19659705159478 L 1010 251.4593595586513 L 1011 250.72424966567309 L 1012 249.9912777620126 L 1013 249.26045420680612 L 1014 248.53178932882693 L 1015 247.80529342634 L 1016 247.08097676695573 L 1017 246.35884958748517 L 1018 245.6389220937954 L 1019 244.92120446066508 L 1020 244.20570683164107 L 1021 243.49243931889447 L 1022 242.78141200307815 L 1023 242.0726349331841 L 1024 241.36611812640143 L 1025 240.66187156797486 L 1026 239.95990521106364 L 1027 239.2602289766006 L 1028 238.56285275315227 L 1029 237.8677863967789 L 1030 237.17503973089526 L 1031 236.484622546132 L 1032 235.7965446001967 L 1033 235.1108156177367 L 1034 234.42744529020104 L 1035 233.74644327570377 L 1036 233.06781919888763 L 1037 232.39158265078765 L 1038 231.71774318869583 L 1039 231.04631033602598 L 1040 230.37729358217914 L 1041 229.71070238240947 L 1042 229.04654615769078 L 1043 228.38483429458304 L 1044 227.72557614510004 L 1045 227.06878102657694 L 1046 226.41445822153884 L 1047 225.76261697756956 L 1048 225.11326650718075 L 1049 224.46641598768176 L 1050 223.82207456105013 L 1051 223.18025133380206 L 1052 222.54095537686416 L 1053 221.9041957254447 L 1054 221.26998137890632 L 1055 220.63832130063872 L 1056 220.00922441793188 L 1057 219.38269962185007 L 1058 218.7587557671061 L 1059 218.13740167193615 L 1060 217.5186461179752 L 1061 216.90249785013287 L 1062 216.28896557646974 L 1063 215.67805796807468 L 1064 215.06978365894173 L 1065 214.46415124584837 L 1066 213.8611692882343 L 1067 213.2608463080797 L 1068 212.66319078978574 L 1069 212.0682111800537 L 1070 211.4759158877665 L 1071 210.8863132838694 L 1072 210.29941170125142 L 1073 209.71521943462824 L 1074 209.13374474042425 L 1075 208.55499583665656 L 1076 207.9789809028185 L 1077 207.40570807976368 L 1078 206.8351854695918 L 1079 206.2674211355331 L 1080 205.70242310183536 L 1081 205.14019935365002 L 1082 204.58075783691905 L 1083 204.02410645826342 L 1084 203.47025308487048 L 1085 202.91920554438366 L 1086 202.37097162479085 L 1087 201.82555907431532 L 1088 201.2829756013057 L 1089 200.74322887412671 L 1090 200.20632652105175 L 1091 199.67227613015396 L 1092 199.14108524919988 L 1093 198.6127613855424 L 1094 198.08731200601443 L 1095 197.56474453682398 L 1096 197.04506636344846 L 1097 196.52828483053096 L 1098 196.0144072417763 L 1099 195.50344085984716 L 1100 194.99539290626257 L 1101 194.4902705612947 L 1102 193.98808096386827 L 1103 193.48883121145934 L 1104 192.99252835999457 L 1105 192.49917942375237 L 1106 192.0087913752628 L 1107 191.52137114520994 L 1108 191.03692562233346 L 1109 190.55546165333092 L 1110 190.07698604276194 L 1111 189.601505552951 L 1112 189.12902690389274 L 1113 188.65955677315645 L 1114 188.19310179579173 L 1115 187.7296685642351 L 1116 187.26926362821627 L 1117 186.81189349466618 L 1118 186.35756462762436 L 1119 185.90628344814823 L 1120 185.45805633422205 L 1121 185.01288962066653 L 1122 184.5707895990499 L 1123 184.13176251759828 L 1124 183.69581458110804 L 1125 183.26295195085777 L 1126 182.833180744521 L 1127 182.40650703608037 L 1128 181.98293685574095 L 1129 181.56247618984577 L 1130 181.14513098079092 L 1131 180.73090712694128 L 1132 180.3198104825478 L 1133 179.911846857664 L 1134 179.50702201806445 L 1135 179.10534168516327 L 1136 178.70681153593262 L 1137 178.31143720282333 L 1138 177.91922427368465 L 1139 177.53017829168562 L 1140 177.14430475523665 L 1141 176.76160911791166 L 1142 176.38209678837137 L 1143 176.00577313028623 L 1144 175.63264346226134 L 1145 175.26271305776095 L 1146 174.89598714503362 L 1147 174.532470907039 L 1148 174.17216948137388 L 1149 173.81508796020023 L 1150 173.4612313901726 L 1151 173.11060477236737 L 1152 172.76321306221178 L 1153 172.41906116941365 L 1154 172.0781539578927 L 1155 171.74049624571091 L 1156 171.4060928050053 L 1157 171.07494836191992 L 1158 170.74706759653904 L 1159 170.42245514282143 L 1160 170.1011155885344 L 1161 169.7830534751894 L 1162 169.4682732979775 L 1163 169.15677950570583 L 1164 168.84857650073513 L 1165 168.54366863891693 L 1166 168.24206022953254 L 1167 167.9437555352319 L 1168 167.64875877197312 L 1169 167.35707410896345 L 1170 167.06870566859968 L 1171 166.78365752641048 L 1172 166.50193371099851 L 1173 166.22353820398337 L 1174 165.94847493994573 L 1175 165.67674780637108 L 1176 165.40836064359559 L 1177 165.14331724475127 L 1178 164.88162135571235 L 1179 164.62327667504277 L 1180 164.3682868539434 L 1181 164.11665549620088 L 1182 163.8683861581363 L 1183 163.62348234855523 L 1184 163.3819475286981 L 1185 163.14378511219098 L 1186 162.9089984649978 L 1187 162.6775909053723 L 1188 162.44956570381163 L 1189 162.22492608300968 L 1190 162.0036752178118 L 1191 161.78581623516982 L 1192 161.57135221409786 L 1193 161.3602861856289 L 1194 161.152621132772 L 1195 160.9483599904697 L 1196 160.74750564555723 L 1197 160.55006093672102 L 1198 160.3560286544592 L 1199 160.16541154104172 L 1200 159.97821229047165 L 1201 159.79443354844747 L 1202 159.61407791232506 L 1203 159.43714793108168 L 1204 159.26364610527938 L 1205 159.09357488702992 L 1206 158.9269366799602 L 1207 158.76373383917792 L 1208 158.60396867123876 L 1209 158.44764343411353 L 1210 158.29476033715616 L 1211 158.1453215410728 L 1212 157.9993291578909 L 1213 157.85678525092965 L 1214 157.71769183477076 L 1215 157.58205087522975 L 1216 157.44986428932864 L 1217 157.32113394526831 L 1218 157.19586166240262 L 1219 157.07404921121218 L 1220 156.95569831327978 L 1221 156.84081064126585 L 1222 156.7293878188847 L 1223 156.62143142088192 L 1224 156.5169429730117 L 1225 156.41592395201567 L 1226 156.31837578560175 L 1227 156.22429985242397 L 1228 156.1336974820633 L 1229 156.04656995500844 L 1230 155.96291850263802 L 1231 155.8827443072031 L 1232 155.80604850181038 L 1233 155.73283217040628 L 1234 155.6630963477617 L 1235 155.59684201945723 L 1236 155.53407012186926 L 1237 155.47478154215682 L 1238 155.41897711824902 L 1239 155.3666576388331 L 1240 155.31782384334346 L 1241 155.27247642195107 L 1242 155.2306160155538 L 1243 155.19224321576726 L 1244 155.15735856491656 L 1245 155.1259625560286 L 1246 155.0980556328251 L 1247 155.0736381897162 L 1248 155.05271057179516 L 1249 155.03527307483324 L 1250 155.02132594527566 L 1251 155.01086938023806 L 1252 155.00390352750364 L 1253 155.00042848552133 L 1254 155.00044430340398 L 1255 155.0039509809281 L 1256 155.0109484685336 L 1257 155.0214366673246 L 1258 155.03541542907067 L 1259 155.05288455620922 L 1260 155.07384380184791 L 1261 155.09829286976856 L 1262 155.12623141443098 L 1263 155.157659040978 L 1264 155.19257530524112 L 1265 155.23097971374665 L 1266 155.27287172372274 L 1267 155.31825074310714 L 1268 155.36711613055536 L 1269 155.41946719544998 L 1270 155.4753031979102 L 1271 155.53462334880246 L 1272 155.59742680975148 L 1273 155.66371269315212 L 1274 155.73348006218202 L 1275 155.8067279308147 L 1276 155.88345526383364 L 1277 155.9636609768468 L 1278 156.04734393630198 L 1279 156.1345029595029 L 1280 156.22513681462576 L 1281 156.31924422073686 L 1282 156.4168238478105 L 1283 156.517874316748 L 1284 156.6223941993969 L 1285 156.73038201857133 L 1286 156.8418362480731 L 1287 156.95675531271266 L 1288 157.07513758833207 L 1289 157.1969814018274 L 1290 157.32228503117267 L 1291 157.45104670544418 L 1292 157.58326460484534 L 1293 157.71893686073264 L 1294 157.85806155564185 L 1295 158.0006367233153 L 1296 158.14666034872948 L 1297 158.2961303681237 L 1298 158.44904466902918 L 1299 158.60540109029884 L 1300 158.76519742213785 L 1301 158.92843140613513 L 1302 159.09510073529484 L 1303 159.26520305406936 L 1304 159.43873595839227 L 1305 159.61569699571254 L 1306 159.79608366502922 L 1307 159.97989341692653 L 1308 160.16712365361022 L 1309 160.35777172894402 L 1310 160.55183494848708 L 1311 160.74931056953235 L 1312 160.9501958011448 L 1313 161.1544878042014 L 1314 161.36218369143091 L 1315 161.57328052745484 L 1316 161.78777532882884 L 1317 162.00566506408484 L 1318 162.2269466537742 L 1319 162.45161697051068 L 1320 162.6796728390153 L 1321 162.91111103616058 L 1322 163.14592829101645 L 1323 163.3841212848966 L 1324 163.62568665140492 L 1325 163.87062097648365 L 1326 164.1189207984611 L 1327 164.3705826081008 L 1328 164.6256028486513 L 1329 164.8839779158961 L 1330 165.1457041582048 L 1331 165.41077787658458 L 1332 165.67919532473252 L 1333 165.9509527090887 L 1334 166.22604618888948 L 1335 166.50447187622225 L 1336 166.78622583607984 L 1337 167.07130408641646 L 1338 167.35970259820414 L 1339 167.6514172954891 L 1340 167.94644405545012 L 1341 168.24477870845604 L 1342 168.54641703812513 L 1343 168.8513547813848 L 1344 169.1595876285314 L 1345 169.47111122329156 L 1346 169.78592116288348 L 1347 170.10401299807916 L 1348 170.42538223326767 L 1349 170.75002432651794 L 1350 171.07793468964397 L 1351 171.40910868826847 L 1352 171.74354164188958 L 1353 172.08122882394605 L 1354 172.42216546188445 L 1355 172.76634673722683 L 1356 173.11376778563832 L 1357 173.46442369699633 L 1358 173.8183095154597 L 1359 174.17542023953865 L 1360 174.53575082216594 L 1361 174.89929617076746 L 1362 175.26605114733505 L 1363 175.63601056849836 L 1364 176.00916920559845 L 1365 176.38552178476198 L 1366 176.76506298697495 L 1367 177.1477874481589 L 1368 177.53368975924576 L 1369 177.9227644662548 L 1370 178.3150060703698 L 1371 178.71040902801636 L 1372 179.1089677509407 L 1373 179.5106766062883 L 1374 179.9155299166835 L 1375 180.32352196031025 L 1376 180.7346469709921 L 1377 181.1488991382746 L 1378 181.56627260750687 L 1379 181.98676147992424 L 1380 182.41035981273237 L 1381 182.83706161919014 L 1382 183.2668608686954 L 1383 183.69975148686922 L 1384 184.13572735564247 L 1385 184.57478231334179 L 1386 185.01691015477687 L 1387 185.46210463132837 L 1388 185.9103594510357 L 1389 186.3616682786866 L 1390 186.81602473590607 L 1391 187.2734224012467 L 1392 187.73385481027987 L 1393 188.19731545568638 L 1394 188.66379778734907 L 1395 189.1332952124449 L 1396 189.60580109553825 L 1397 190.08130875867522 L 1398 190.55981148147703 L 1399 191.041302501236 L 1400 191.52577501301036 L 1401 192.01322216972073 L 1402 192.5036370822472 L 1403 192.99701281952596 L 1404 193.4933424086482 L 1405 193.99261883495768 L 1406 194.4948350421504 L 1407 194.9999839323746 L 1408 195.5080583663303 L 1409 196.01905116337096 L 1410 196.53295510160453 L 1411 197.04976291799542 L 1412 197.5694673084678 L 1413 198.09206092800787 L 1414 198.61753639076866 L 1415 199.1458862701735 L 1416 199.67710309902188 L 1417 200.2111793695941 L 1418 200.7481075337579 L 1419 201.2878800030753 L 1420 201.83048914890915 L 1421 202.3759273025319 L 1422 202.92418675523297 L 1423 203.4752597584283 L 1424 204.0291385237702 L 1425 204.58581522325622 L 1426 205.1452819893413 L 1427 205.70753091504764 L 1428 206.27255405407712 L 1429 206.84034342092383 L 1430 207.41089099098608 L 1431 207.98418870068087 L 1432 208.5602284475569 L 1433 209.13900209040952 L 1434 209.7205014493961 L 1435 210.30471830615085 L 1436 210.89164440390184 L 1437 211.481271447587 L 1438 212.07359110397158 L 1439 212.6685950017663 L 1440 213.26627473174494 L 1441 213.86662184686398 L 1442 214.4696278623813 L 1443 215.07528425597621 L 1444 215.6835824678707 L 1445 216.29451390094906 L 1446 216.90806992088073 L 1447 217.52424185624116 L 1448 218.14302099863545 L 1449 218.7643986028204 L 1450 219.38836588682872 L 1451 220.01491403209332 L 1452 220.64403418357116 L 1453 221.27571744986946 L 1454 221.90995490337022 L 1455 222.54673758035713 L 1456 223.18605648114243 L 1457 223.82790257019312 L 1458 224.47226677626006 L 1459 225.11913999250473 L 1460 225.7685130766288 L 1461 226.42037685100357 L 1462 227.07472210279857 L 1463 227.7315395841132 L 1464 228.39082001210613 L 1465 229.05255406912707 L 1466 229.71673240284898 L 1467 230.383345626399 L 1468 231.0523843184925 L 1469 231.72383902356506 L 1470 232.39770025190666 L 1471 233.0739584797961 L 1472 233.7526041496347 L 1473 234.43362767008256 L 1474 235.11701941619293 L 1475 235.8027697295488 L 1476 236.4908689184 L 1477 237.18130725779866 L 1478 237.87407498973843 L 1479 238.56916232329095 L 1480 239.26655943474475 L 1481 239.96625646774464 L 1482 240.6682435334299 L 1483 241.37251071057523 L 1484 242.0790480457297 L 1485 242.7878455533589 L 1486 243.4988932159846 L 1487 244.2121809843271 L 1488 244.92769877744755 L 1489 245.6454364828895 L 1490 246.36538395682288 L 1491 247.08753102418646 L 1492 247.81186747883186 L 1493 248.5383830836686 L 1494 249.26706757080734 L 1495 249.99791064170665 L 1496 250.730901967317 L 1497 251.46603118822762 L 1498 252.20328791481307 L 1499 252.94266172737923 L 1500 253.68414217631167 L 1501 254.4277187822222 L 1502 255.1733810360976 L 1503 255.92111839944852 L 1504 256.6709203044573 L 1505 257.42277615412866 L 1506 258.17667532243826 L 1507 258.9326071544835 L 1508 259.6905609666344 L 1509 260.4505260466837 L 1510 261.2124916539993 L 1511 261.9764470196751 L 1512 262.7423813466835 L 1513 263.5102838100288 L 1514 264.2801435568988 L 1515 265.0519497068195 L 1516 265.8256913518076 L 1517 266.60135755652607 L 1518 267.3789373584374 L 1519 268.158419767959 L 1520 268.93979376861944 L 1521 269.72304831721215 L 1522 270.5081723439539 L 1523 271.29515475263906 L 1524 272.0839844207976 L 1525 272.8746501998525 L 1526 273.66714091527615 L 1527 274.4614453667498 L 1528 275.25755232832046 L 1529 276.05545054856015 L 1530 276.8551287507255 L 1531 277.65657563291586 L 1532 278.4597798682343 L 1533 279.26473010494675 L 1534 280.07141496664264 L 1535 280.87982305239643 L 1536 281.68994293692754 L 1537 282.50176317076307 L 1538 283.3152722803983 L 1539 284.1304587684598" stroke-linecap="round" stroke-linejoin="round" stroke-miterlimit="10" stroke-width="24" />
  </g>
</svg>